<svg height="512pt" viewBox="0 0 512 512" width="512pt" xmlns="http://www.w3.org/2000/svg"><path d="m7.5 354.917969c4.140625 0 7.5-3.359375 7.5-7.5v-309.917969c0-12.40625 10.09375-22.5 22.5-22.5h333.320312c4.144532 0 7.5-3.359375 7.5-7.5s-3.355468-7.5-7.5-7.5h-333.320312c-20.679688 0-37.5 16.820312-37.5 37.5v309.917969c0 4.140625 3.359375 7.5 7.5 7.5zm0 0"/><path d="m474.5 0h-69.152344c-4.144531 0-7.5 3.359375-7.5 7.5s3.355469 7.5 7.5 7.5h69.152344c12.40625 0 22.5 10.09375 22.5 22.5v437c0 12.40625-10.09375 22.5-22.5 22.5h-437c-12.40625 0-22.5-10.09375-22.5-22.5v-92.5625c0-4.140625-3.359375-7.5-7.5-7.5s-7.5 3.359375-7.5 7.5v92.5625c0 20.679688 16.820312 37.5 37.5 37.5h437c20.679688 0 37.5-16.820312 37.5-37.5v-437c0-20.679688-16.820312-37.5-37.5-37.5zm0 0"/><path d="m345.855469 132.011719c6.265625 16.652343 22.355469 28.535156 41.171875 28.535156 24.246094 0 43.972656-19.726563 43.972656-43.972656 0-24.246094-19.726562-43.972657-43.972656-43.972657-11.082032 0-21.214844 4.128907-28.957032 10.917969l-43.128906-10.238281c-12.363281-2.9375-24.953125 3.855469-29.28125 15.804688l-25.835937 71.308593c-1.273438-.019531-2.546875-.035156-3.824219-.035156-41.171875 0-80.28125 10.511719-112.089844 29.863281-10.007812-12.585937-25.191406-20-41.410156-20-29.183594 0-52.921875 23.742188-52.921875 52.921875 0 20.367188 11.363281 38.476563 29.320313 47.378907-2.628907 9.535156-3.988282 19.359374-3.988282 29.355468 0 27.230469 10.148438 53.601563 29.351563 76.261719 2.675781 3.164063 7.410156 3.550781 10.566406.875 3.164063-2.679687 3.554687-7.410156.875-10.570313-16.875-19.914062-25.792969-42.933593-25.792969-66.566406 0-68.660156 74.507813-124.519531 166.089844-124.519531s166.089844 55.859375 166.089844 124.519531-74.507813 124.519532-166.089844 124.519532c-43.734375 0-85.042969-12.691407-116.320312-35.738282-3.332032-2.457031-8.027344-1.746094-10.484376 1.589844-2.457031 3.335938-1.746093 8.027344 1.585938 10.484375 33.835938 24.933594 78.308594 38.664063 125.21875 38.664063 47.996094 0 93.203125-14.277344 127.285156-40.199219 34.695313-26.386719 53.804688-61.660157 53.804688-99.320313 0-9.996094-1.359375-19.820312-3.988282-29.359375 17.75-8.867187 29.324219-27.226562 29.324219-47.375 0-29.179687-23.742187-52.921875-52.925781-52.921875-16.363281 0-31.429688 7.378906-41.421875 19.992188-17.257813-10.5-36.667969-18.390625-57.390625-23.417969l14.390625-39.722656zm-261.964844 124.183593c-11.878906-6.648437-19.3125-19.109374-19.3125-33.046874 0-20.914063 17.011719-37.921876 37.921875-37.921876 11.195312 0 21.703125 4.929688 28.875 13.355469-.890625.652344-1.78125 1.308594-2.660156 1.976563-20.800782 15.816406-35.988282 34.832031-44.824219 55.636718zm332.109375-139.621093c0 15.976562-12.996094 28.976562-28.972656 28.976562-15.976563 0-28.976563-13-28.976563-28.976562 0-15.976563 13-28.972657 28.976563-28.972657 15.976562 0 28.972656 12.996094 28.972656 28.972657zm-6.5 68.652343c20.910156 0 37.921875 17.011719 37.921875 37.921876 0 13.785156-7.558594 26.402343-19.3125 33.042968-8.835937-20.804687-24.023437-39.816406-44.824219-55.632812-.878906-.671875-1.769531-1.328125-2.664062-1.980469 7.152344-8.441406 17.582031-13.351563 28.878906-13.351563zm-96.25-69.546874-17.40625 48.042968c-6.679688-1.148437-13.472656-1.996094-20.34375-2.5625l24.261719-66.964844c1.730469-4.777343 6.769531-7.492187 11.714843-6.320312l36.433594 8.652344c-3.003906 5.835937-4.738281 12.425781-4.839844 19.40625l-21.035156-4.996094c-3.707031-.882812-7.484375 1.160156-8.785156 4.742188zm0 0"/><path d="m256 334.511719c-12.632812 0-24.757812-4.652344-34.140625-13.105469-4.464844-4.023438-10.230469-6.066406-16.230469-5.753906-6.003906.316406-11.523437 2.945312-15.546875 7.410156-8.304687 9.21875-7.558593 23.472656 1.660157 31.777344 17.660156 15.910156 40.480468 24.671875 64.257812 24.671875 23.773438 0 46.597656-8.761719 64.257812-24.671875 9.21875-8.304688 9.964844-22.558594 1.660157-31.777344-8.300781-9.21875-22.558594-9.960938-31.777344-1.660156-9.382813 8.457031-21.507813 13.109375-34.140625 13.109375zm54.773438-1.410157c2.765624 3.074219 2.519531 7.828126-.554688 10.59375-14.902344 13.425782-34.15625 20.816407-54.21875 20.816407s-39.316406-7.390625-54.222656-20.816407c-3.070313-2.765624-3.320313-7.519531-.550782-10.589843 1.476563-1.644531 3.523438-2.476563 5.574219-2.476563 1.792969 0 3.585938.632813 5.015625 1.921875 12.144532 10.9375 27.835938 16.960938 44.183594 16.960938s32.035156-6.023438 44.179688-16.960938c3.074218-2.769531 7.828124-2.519531 10.59375.550781zm0 0"/><path d="m188.304688 240.929688c-16.949219 0-30.734376 13.789062-30.734376 30.734374 0 16.945313 13.789063 30.734376 30.734376 30.734376 16.945312 0 30.734374-13.789063 30.734374-30.734376 0-16.945312-13.789062-30.734374-30.734374-30.734374zm0 46.46875c-8.675782 0-15.734376-7.058594-15.734376-15.734376 0-8.675781 7.058594-15.734374 15.734376-15.734374 8.675781 0 15.734374 7.058593 15.734374 15.734374 0 8.675782-7.058593 15.734376-15.734374 15.734376zm0 0"/><path d="m354.429688 271.664062c0-16.945312-13.785157-30.734374-30.734376-30.734374-16.945312 0-30.730468 13.789062-30.730468 30.734374 0 16.945313 13.785156 30.734376 30.730468 30.734376 16.949219 0 30.734376-13.785157 30.734376-30.734376zm-46.46875 0c0-8.675781 7.058593-15.734374 15.734374-15.734374 8.675782 0 15.734376 7.058593 15.734376 15.734374 0 8.675782-7.058594 15.734376-15.734376 15.734376-8.675781 0-15.734374-7.058594-15.734374-15.734376zm0 0"/></svg>